<svg xmlns="http://www.w3.org/2000/svg" viewBox="0 0 48 48">
  <!-- Background -->
  <rect width="48" height="48" rx="6" fill="#003366"/>
  
  <!-- Card suit symbols -->
  <path d="M3.5,3 C2.5,3 2,4 2.5,5 C3,6 4,6.5 3.5,7.5 C3,6.5 2,6 1.5,5 C1,4 1.5,3 2.5,3 L3.5,3" fill="#cc0000" transform="scale(2.4) translate(2, 2)"/>
  <path d="M3.5,3 C2.5,3 2,4 2.5,5 C3,6 4,6.5 3.5,7.5 C3,6.5 2,6 1.5,5 C1,4 1.5,3 2.5,3 L3.5,3" fill="#000000" transform="scale(2.4) translate(8, 2)"/>
  <circle cx="15" cy="34.5" r="3.6" fill="#cc0000"/>
  <path d="M39,42 L33,30 L27,42 Z" fill="#000000"/>
  
  <!-- 'B' letter -->
  <path d="M24,15 Q30,15 30,21 Q30,24 27,25.5 Q33,27 33,31.5 Q33,36 27,36 L18,36 L18,15 Z M24,21 L24,24 Q27,24 27,22.5 Q27,21 24,21 Z M25.5,30 L24,30 L24,33 Q28.5,33 28.5,31.5 Q28.5,30 25.5,30 Z" fill="#ffffff"/>
</svg>