<svg xmlns="http://www.w3.org/2000/svg" viewBox="0 0 16 16">
  <!-- Background -->
  <rect width="16" height="16" rx="2" fill="#003366"/>
  
  <!-- Card suit symbols -->
  <path d="M3.5,3 C2.5,3 2,4 2.5,5 C3,6 4,6.5 3.5,7.5 C3,6.5 2,6 1.5,5 C1,4 1.5,3 2.5,3 L3.5,3" fill="#cc0000" transform="scale(0.8) translate(2, 2)"/>
  <path d="M3.5,3 C2.5,3 2,4 2.5,5 C3,6 4,6.5 3.5,7.5 C3,6.5 2,6 1.5,5 C1,4 1.5,3 2.5,3 L3.5,3" fill="#000000" transform="scale(0.8) translate(8, 2)"/>
  <circle cx="5" cy="11.5" r="1.2" fill="#cc0000"/>
  <path d="M13,14 L11,10 L9,14 Z" fill="#000000"/>
  
  <!-- 'B' letter -->
  <path d="M8,5 Q10,5 10,7 Q10,8 9,8.5 Q11,9 11,10.5 Q11,12 9,12 L6,12 L6,5 Z M8,7 L8,8 Q9,8 9,7.5 Q9,7 8,7 Z M8.5,10 L8,10 L8,11 Q9.5,11 9.5,10.5 Q9.5,10 8.5,10 Z" fill="#ffffff"/>
</svg>