<svg xmlns="http://www.w3.org/2000/svg" viewBox="0 0 128 128">
  <!-- Background -->
  <rect width="128" height="128" rx="16" fill="#003366"/>
  
  <!-- Card suit symbols -->
  <path d="M3.5,3 C2.5,3 2,4 2.5,5 C3,6 4,6.5 3.5,7.5 C3,6.5 2,6 1.5,5 C1,4 1.5,3 2.5,3 L3.5,3" fill="#cc0000" transform="scale(6.4) translate(2, 2)"/>
  <path d="M3.5,3 C2.5,3 2,4 2.5,5 C3,6 4,6.5 3.5,7.5 C3,6.5 2,6 1.5,5 C1,4 1.5,3 2.5,3 L3.5,3" fill="#000000" transform="scale(6.4) translate(8, 2)"/>
  <circle cx="40" cy="92" r="9.6" fill="#cc0000"/>
  <path d="M104,112 L88,80 L72,112 Z" fill="#000000"/>
  
  <!-- 'B' letter -->
  <path d="M64,40 Q80,40 80,56 Q80,64 72,68 Q88,72 88,84 Q88,96 72,96 L48,96 L48,40 Z M64,56 L64,64 Q72,64 72,60 Q72,56 64,56 Z M68,80 L64,80 L64,88 Q76,88 76,84 Q76,80 68,80 Z" fill="#ffffff"/>
</svg>